<?xml version="1.0" encoding="utf-8"?>
<!-- Generator: Adobe Illustrator 22.1.0, SVG Export Plug-In . SVG Version: 6.00 Build 0)  -->
<svg version="1.1" id="Calque_1" xmlns="http://www.w3.org/2000/svg" xmlns:xlink="http://www.w3.org/1999/xlink" x="0px" y="0px"
	 viewBox="0 0 90 90" style="enable-background:new 0 0 90 90;" xml:space="preserve">
<style type="text/css">
	.st0{display:none;}
	.st1{display:inline;}
	.st2{display:inline;fill:#D38802;}
	.st3{display:inline;fill:#F9A91C;}
	.st4{display:inline;fill:#FCB22D;}
	.st5{display:inline;fill:#DD8505;}
	.st6{display:inline;fill:#ED9906;}
	.st7{display:inline;fill:#9B6002;}
	.st8{display:inline;fill:#EDCF9A;}
	.st9{display:inline;fill:#84102C;}
	.st10{display:inline;fill:#CC9AA8;}
	.st11{display:inline;fill:#930F32;}
	.st12{display:inline;fill:#840F28;}
	.st13{display:inline;fill:#E5B5C3;}
	.st14{display:inline;fill:#B22D47;}
	.st15{display:inline;fill:#9B182E;}
	.st16{display:inline;fill:#EFD5E1;}
	.st17{display:inline;fill:#C695A5;}
	.st18{display:inline;fill:#C1617C;}
	.st19{display:inline;fill:#A82945;}
	.st20{display:inline;fill:#8E112C;}
	.st21{display:inline;fill:#770725;}
	.st22{display:inline;fill:#B50F42;}
	.st23{display:inline;fill:#E58FAA;}
	.st24{display:inline;fill:none;}
	.st25{fill:#FFFFFF;}
	.st26{fill:#FFFFFF;stroke:#000000;stroke-miterlimit:10;}
</style>
<g id="Calque_1_1_" class="st0">
	<rect class="st1" width="89.7" height="89.7"/>
	
		<image style="display:inline;overflow:visible;enable-background:new    ;" width="236" height="354" xlink:href="../images/ac36928537533ced14a7bfd662ee6b0d--pose-portrait-portrait-photography-fashion.jpg"  transform="matrix(0.1412 0 0 0.1412 28.2064 19.8746)">
	</image>
	
		<image style="display:inline;overflow:visible;enable-background:new    ;" width="500" height="512" xlink:href="../images/prise-objet-fin.jpg"  transform="matrix(9.673546e-02 0 0 9.673546e-02 19.7156 20.1058)">
	</image>
	<path class="st2" d="M123.4,73.8c0,0,8.6,3.1,8.9,6.1c0.3,3.1-0.7,12.9-0.7,12.9l-9.8,0.8L120.2,79L123.4,73.8z"/>
	<path class="st3" d="M115.5,71.5l-0.9,1.2c0,0,5.2,3.7,6,6.5c0.8,0,3.5-0.1,3.8-2.9c-0.5-0.6-1.4-1.3-1.4-1.3v-1.8L115.5,71.5z"/>
	<path class="st4" d="M121.3,57c0,0-0.5,3.6-3.3,3.6c-0.6,0.3-4.3,1.4-3.7,5.3s1.5,8.4,4.4,9.4c0.9,0.1,2.6,0.4,4.7-2.6
		S126,67,126,67s1-2.4-1.4-3.3c-2.4-0.9-3.4-3.4-3.4-3.4L121.3,57z"/>
	<path class="st5" d="M121.3,57c0,0-0.3,3.9-3.3,3.6c-0.9,0.4-4.2,2.7-3.8,4.9c0.4,2.3-0.6,3.6-0.6,3.6s0.7,0.2,0-6.6
		c0-1-0.8-7.1,5.4-9.9c0.8-0.2,6.3-2.3,8.9,3.8c1.1,3.2-0.4,8.9-1,10.3s0.1,6.6,0.1,6.6s1,3.6-0.3,6.6S127,84,127,84
		s-2.4-2.4-1.7-5.7s-2.5-4.9-2.5-4.9s2.5-1.9,3.4-7.7c-0.8-1.2-1.9-2.1-2.5-2.4c-0.6-0.4-2.1-2-2.4-2.5
		C121.2,60.3,120.7,58.3,121.3,57z"/>
	<path class="st3" d="M126.5,88.7c0,0-1,2.7,3.1,2.6c0.8-0.2,1.1-0.8,1.1-0.8v-6.8c0,0,0.3-2.5,0.7-2.7s0-1.1,0-1.1l0.2-4.9v-1.4
		v-0.9l-1-0.8c0,0-1-1.4-1.8-2.8c-0.6-0.6-2.2-2.1-2.2-2.1s-0.2-0.3-0.4-0.1c-0.2,0.2-0.1,1.1-0.1,1.1s0.4,0.5,0.6,0.7
		s1.1,1.1,1.1,1.1l0.4,0.9c0,0-3.6,0.5-4.3,1.4c-0.4,0.7,0.2,0.8,0.2,0.8v0.5l0.4,0.3c0,0,0.7,0.1,1-0.1s-0.2,0.2,0,0.5
		c0.3,0.3,0.4,0.4,0.7,0.3c0.1,0.7,0.3,3.1,2,4.4c0.1,1.2,0.1,2.3,0.1,2.3v1.8C128.3,82.6,127.7,85.7,126.5,88.7z"/>
	<path class="st2" d="M122.5,98.3c0,0,1.1-5.9,2-6.1c0.9,0.7,4,4.4,7.1,1.2c0.8,2.6,0.7,4.9,0.7,4.9H122.5z"/>
	<path class="st2" d="M107.4,98.3c0,0-3.4-25.7,5.8-26.2c2.2,0.5,11.6,3.4,10.5,26.2C107.4,98.3,107.4,98.3,107.4,98.3z"/>
	<path class="st6" d="M125.7,88.7c0,0-2.1,2.3-1.2,3.5s3.6,4.9,7.8,0.8c-0.1-1.9-0.7-3.1-0.7-3.1S128.7,93.2,125.7,88.7z"/>
	<path class="st5" d="M161.6,93c0,0-4,1.9-8.3,1.1c-2,0.8-5.6,1.2-7.7,2.7c-1.6,0.3-2.6,0.4-2.6,0.4v1.5c0,0,2.2,2.3,5.8-0.7
		c1.4,0.4,3.5-0.4,3.5-0.4l1.8,0.7L161.6,93z"/>
	<path class="st6" d="M160.4,93l-9.3,6.5l-2.2,5.5c0,0,0,6.1-0.9,7.4c0.4,0.9,2.8,0.5,2.8,0.5s0.8-0.8,1-4c1.1-2,1.7-3.4,1.7-3.4
		s0.2-3.1,2.6-2.5C158.3,100,160.4,93,160.4,93z"/>
	<path class="st3" d="M188.8,77l-14.2,6.7l-1.3,0.5c0,0-4.8,5.2-9.8,6.9c-1.7,0.5-2.7,0.7-3.4,2.4s-2.7,5.3-5,8.9
		c-0.5,1.6,0,4.1,0,4.1l0.3,4.5l1.5,4l0.5,3.1c0,0,2.1,1.6,3.1-3.8c-0.6-2.1-1.3-3.2-1.3-3.2l0.5-1.4l-0.6-4.1c0,0,2.8-2.5,3.2-4
		s1.6-0.3,1.6-0.3l0.1,5.7c0,0,0.8,1.7,2.8,2.6c1.1,1.8,1.8,3.8,1.8,3.8l1,2.8c0,0,2.8,1.2,2.4-4.5c-1-1.4-1-1.4-1-1.4
		s-0.4-2.9-2.2-4.1c0.3-1.3,1.7-4.6,0.3-5.7c1.2-1,1.8-2.9,1.8-2.9s-1.3,1.9,1.1,3.6c1.5,2.3,2.1,5.6,2.1,5.6l0.3,1.8
		c0,0-2.8,6.6-1.4,7.5c1.7,0.7,1.8,0.3,1.8,0.3l1.1-2.9l2.7-2.4c0,0,1.1-0.6,0.4-3.7c0.2-3.5,0.5-5.3,0.5-5.3s0.2-2.3,0.3-2.8
		c0.1-0.4,2-2.7,1.8-7c1.3-0.4,7.7-0.1,7.7-0.1V77H188.8z"/>
	<polygon class="st2" points="176.7,80.4 170.3,119.6 171.2,120.1 177.7,80.8 	"/>
	<polygon class="st7" points="177.7,80.8 178.8,80.7 171.9,120.1 171.2,120.1 	"/>
	<ellipse transform="matrix(0.1219 -0.9925 0.9925 0.1219 76.0811 247.1419)" class="st5" cx="177.7" cy="80.6" rx="0.3" ry="1.1"/>
	<path class="st5" d="M170.3,119.5c0,0,0.5,0.3,1.6,0.4c-0.3,0.9-1.1,2.6-1.1,2.6L170.3,119.5z"/>
	<polygon class="st7" points="146.1,88.7 146.5,88.8 146.2,89.3 	"/>
	
		<image style="display:inline;overflow:visible;enable-background:new    ;" width="238" height="212" xlink:href="../images/download.jpg"  transform="matrix(0.2055 0 0 0.2055 20.4212 20.7263)">
	</image>
	<path class="st2" d="M157.3,80.3h-18.4c-0.9,0-1.6-0.7-1.6-1.6V39.1c0-0.9,0.7-1.6,1.6-1.6H157c1,0,1.9,0.8,1.9,1.9v39.4
		C158.9,79.6,158.2,80.3,157.3,80.3z"/>
	<path class="st6" d="M156.5,78h-16.7c-0.9,0-1.6-0.7-1.6-1.6V40c0-0.9,0.7-1.6,1.6-1.6h16.4c1,0,1.9,0.8,1.9,1.9v36.1
		C158.1,77.3,157.4,78,156.5,78z"/>
	<path class="st8" d="M156.3,78.4h-16c-1.1,0-2-0.9-2-2v-3.6h19.9v3.8C158.1,77.6,157.3,78.4,156.3,78.4z"/>
	<path class="st4" d="M142.6,44.5h-2c-0.3,0-0.5-0.2-0.5-0.5v-2c0-0.2,0.2-0.3,0.3-0.3h2.2c0.2,0,0.3,0.1,0.3,0.3v2.1
		C143,44.3,142.8,44.5,142.6,44.5z"/>
	<path class="st4" d="M147,44.5h-2c-0.3,0-0.5-0.2-0.5-0.5v-2c0-0.2,0.2-0.3,0.3-0.3h2.2c0.2,0,0.3,0.1,0.3,0.3v2.1
		C147.4,44.3,147.2,44.5,147,44.5z"/>
	<path class="st4" d="M151.3,44.5h-2c-0.3,0-0.5-0.2-0.5-0.5v-2c0-0.2,0.2-0.3,0.3-0.3h2.2c0.2,0,0.3,0.1,0.3,0.3v2.1
		C151.7,44.3,151.6,44.5,151.3,44.5z"/>
	<path class="st4" d="M155.8,44.5h-2c-0.3,0-0.5-0.2-0.5-0.5v-2c0-0.2,0.2-0.3,0.3-0.3h2.2c0.2,0,0.3,0.1,0.3,0.3v2.1
		C156.2,44.3,156,44.5,155.8,44.5z"/>
	<path class="st4" d="M155.8,49.7h-2c-0.3,0-0.5-0.2-0.5-0.5v-2.1c0-0.2,0.2-0.3,0.3-0.3h2.2c0.2,0,0.3,0.1,0.3,0.3v2.1
		C156.2,49.5,156,49.7,155.8,49.7z"/>
	<path class="st4" d="M151.3,49.7h-2c-0.3,0-0.5-0.2-0.5-0.5v-2.1c0-0.2,0.2-0.3,0.3-0.3h2.2c0.2,0,0.3,0.1,0.3,0.3v2.1
		C151.7,49.5,151.6,49.7,151.3,49.7z"/>
	<path class="st4" d="M147,49.7h-2c-0.3,0-0.5-0.2-0.5-0.5v-2.1c0-0.2,0.2-0.3,0.3-0.3h2.2c0.2,0,0.3,0.1,0.3,0.3v2.1
		C147.4,49.5,147.2,49.7,147,49.7z"/>
	<path class="st4" d="M142.6,49.7h-2c-0.3,0-0.5-0.2-0.5-0.5v-2.1c0-0.2,0.2-0.3,0.3-0.3h2.2c0.2,0,0.3,0.1,0.3,0.3v2.1
		C143,49.5,142.8,49.7,142.6,49.7z"/>
	<path class="st4" d="M142.6,54.9h-2c-0.3,0-0.5-0.2-0.5-0.5v-2.1c0-0.2,0.2-0.3,0.3-0.3h2.2c0.2,0,0.3,0.1,0.3,0.3v2.1
		C143,54.7,142.8,54.9,142.6,54.9z"/>
	<path class="st4" d="M142.6,60h-2c-0.3,0-0.5-0.2-0.5-0.5v-2.1c0-0.2,0.2-0.3,0.3-0.3h2.2c0.2,0,0.3,0.1,0.3,0.3v2.1
		C143,59.8,142.8,60,142.6,60z"/>
	<path class="st4" d="M147,60h-2c-0.3,0-0.5-0.2-0.5-0.5v-2.1c0-0.2,0.2-0.3,0.3-0.3h2.2c0.2,0,0.3,0.1,0.3,0.3v2.1
		C147.4,59.8,147.2,60,147,60z"/>
	<path class="st4" d="M151.3,60h-2c-0.3,0-0.5-0.2-0.5-0.5v-2.1c0-0.2,0.2-0.3,0.3-0.3h2.2c0.2,0,0.3,0.1,0.3,0.3v2.1
		C151.7,59.8,151.6,60,151.3,60z"/>
	<path class="st4" d="M155.8,60h-2c-0.3,0-0.5-0.2-0.5-0.5v-2.1c0-0.2,0.2-0.3,0.3-0.3h2.2c0.2,0,0.3,0.1,0.3,0.3v2.1
		C156.2,59.8,156,60,155.8,60z"/>
	<path class="st4" d="M151.3,65.2h-2c-0.3,0-0.5-0.2-0.5-0.5v-2.1c0-0.2,0.2-0.3,0.3-0.3h2.2c0.2,0,0.3,0.1,0.3,0.3v2.1
		C151.7,65.1,151.6,65.2,151.3,65.2z"/>
	<path class="st4" d="M142.6,77.2h-2c-0.3,0-0.5-0.2-0.5-0.5v-2.1c0-0.2,0.2-0.3,0.3-0.3h2.2c0.2,0,0.3,0.1,0.3,0.3v2.1
		C143,77,142.8,77.2,142.6,77.2z"/>
	<path class="st4" d="M147,77.2h-2c-0.3,0-0.5-0.2-0.5-0.5v-2.1c0-0.2,0.2-0.3,0.3-0.3h2.2c0.2,0,0.3,0.1,0.3,0.3v2.1
		C147.4,77,147.3,77.2,147,77.2z"/>
	<path class="st4" d="M151.3,77.2h-2c-0.3,0-0.5-0.2-0.5-0.5v-2.1c0-0.2,0.2-0.3,0.3-0.3h2.2c0.2,0,0.3,0.1,0.3,0.3v2.1
		C151.8,77,151.6,77.2,151.3,77.2z"/>
	<path class="st4" d="M155.8,77.2h-2c-0.3,0-0.5-0.2-0.5-0.5v-2.1c0-0.2,0.2-0.3,0.3-0.3h2.2c0.2,0,0.3,0.1,0.3,0.3v2.1
		C156.2,77,156,77.2,155.8,77.2z"/>
	<path class="st4" d="M147,65.2h-2c-0.3,0-0.5-0.2-0.5-0.5v-2.1c0-0.2,0.2-0.3,0.3-0.3h2.2c0.2,0,0.3,0.1,0.3,0.3v2.1
		C147.4,65.1,147.2,65.2,147,65.2z"/>
	<path class="st4" d="M142.6,65.2h-2c-0.3,0-0.5-0.2-0.5-0.5v-2.1c0-0.2,0.2-0.3,0.3-0.3h2.2c0.2,0,0.3,0.1,0.3,0.3v2.1
		C143,65,142.8,65.2,142.6,65.2z"/>
	<path class="st4" d="M147,54.9h-2c-0.3,0-0.5-0.2-0.5-0.5v-2.1c0-0.2,0.2-0.3,0.3-0.3h2.2c0.2,0,0.3,0.1,0.3,0.3v2.1
		C147.4,54.7,147.2,54.9,147,54.9z"/>
	<path class="st4" d="M151.3,54.9h-2c-0.3,0-0.5-0.2-0.5-0.5v-2.1c0-0.2,0.2-0.3,0.3-0.3h2.2c0.2,0,0.3,0.1,0.3,0.3v2.1
		C151.7,54.7,151.6,54.9,151.3,54.9z"/>
	<path class="st4" d="M155.8,54.9h-2c-0.3,0-0.5-0.2-0.5-0.5v-2.1c0-0.2,0.2-0.3,0.3-0.3h2.2c0.2,0,0.3,0.1,0.3,0.3v2.1
		C156.2,54.7,156,54.9,155.8,54.9z"/>
</g>
<g id="Calque_2_1_" class="st0">
	
		<image style="display:inline;overflow:visible;enable-background:new    ;" width="1600" height="1523" xlink:href="../images/depositphotos_163609150-stock-photo-happy-business-woman-ready-for.jpg"  transform="matrix(4.013119e-02 0 0 4.013119e-02 18.3604 16.1667)">
	</image>
	<path class="st9" d="M47,26.9c0,0,3.1-0.6,4.3,5.6c0.6,3.4,0.3,7.9,1.9,9.5c0.5,0.6,2,2.5,2,2.5l-5.1-2.4l-8.5-0.6l-2.9-0.7
		c0,0-0.2-3.4,1.3-6.1C40.4,33,40.2,26.3,47,26.9z"/>
	<path class="st10" d="M43.6,39.4v1.5l0.9,2.7c0,0,0.4,0.5-0.5,1.3c0.3,0.5,1,2.1,1,2.1s-0.2-1.8,0.9-2c1.2-0.4,1.5-0.6,1.5-0.6
		s0.1-0.8,0.6-1.2c0.3-0.6,0.3-0.6,0.3-0.6l0.5-1.3l0.1-1.5v-1L43.6,39.4z"/>
	<path class="st11" d="M48.9,41.6L48.2,43c0,0-0.9,0.8-0.7,1.3c-0.4,0.1-1.7,0.6-1.7,0.6s-1,0.3-0.8,2.2c0.3,1.8,0,8.9,0,8.9
		l2.4,0.6l1.2-6.8L48.9,41.6z"/>
	<path class="st12" d="M43.7,41.1l1.1,2.8c0,0-0.4,0.9-0.8,1c0.2,0.4,1,2.1,1,2.1s1.2,1.1,1.1,3.8c-0.2,2.3-0.4,3.1-0.4,3.1
		l-0.4,2.3l-3.7-0.4l1.3-14.1L43.7,41.1z"/>
	<path class="st13" d="M45.2,30.2c0,0,2.8-1.4,4.7,3.9c0.5,2.1,0.3,3.6-1.4,5.4c-1.5,1.1-2.3,1.9-4.1,0.7c-1.7-1.5-1.8-2.1-1.8-2.1
		S42.9,29.9,45.2,30.2z"/>
	<path class="st14" d="M43.6,40.8h-5.8L36.2,41c0,0-1.4-0.4-1.2,1.9c-0.6,0.1-0.7,0.5-0.7,0.5l-0.6,1.3l-0.3,2.7
		c0,0-0.5,0.2-0.3,0.5c0.1,0.6-0.1,1.3-0.1,1.3l-0.4,3.9v1.3c0,0-0.4,3,0.2,3.6s0.9,1.4,0.9,1.4l0.4,1.1l2.2,0.4L47,63.1l0.2-1.3
		v-0.9l-5.9-4.5l0.6-1.1c0,0,0.4-11.8,1.5-14.2"/>
	<path class="st15" d="M43.3,55.6v4.7l5.8,2c0,0,4.2,1.6,5.6,0.4c1.1-1.4,2.1-3.5,2.1-3.5l0.3-1.4l0.3-2.2l-0.5-0.2l0.2-2.9L56.6,47
		c0,0,0.4-0.6,0-0.6c-0.5,0,0-1.3,0-1.3l-0.2-0.4l-7.5-3c0,0-0.5,13.6-1.9,14.8C45.4,56,43.3,55.6,43.3,55.6z"/>
	<path class="st15" d="M40.7,41.3c0,0-2.8,4.3-1.9,11.7c0.7,1.1,1.2,1.2,1.2,1.2s-1.9-4.5,1-11.8c0.8-0.4,1-0.4,1-0.4l-0.3-0.5
		L40.7,41.3z"/>
	<path class="st14" d="M48.7,56.7c0,0,2.8-8.6,2.5-12.5c-0.7-0.7-1.6-1.9-1.6-1.9l1.2,0.2l-0.2-0.4l1.1,0.4c0,0,1.6,5.7-2.3,14.1
		C48.7,56.7,48.7,56.7,48.7,56.7z"/>
	<path class="st13" d="M43.1,59c0,0,0.8-0.3,0.1-3.2c-0.9-0.2-3.7-1.9-3.7-1.9l-1-1.2c0,0-0.1-0.3-0.5-0.3C37.5,52,36.5,51,36.5,51
		l-0.3-0.1H35c0,0-0.5-0.1-0.7,0.1c-0.4,0.1-1.2,0.3-0.6,0.6c0.3,0.1,0.8,0.2,1.2,0c0.5-0.1,1.1,0.2,1.1,0.2l0.9,0.6l-1.1-0.5
		l-0.7-0.1l-1.2,0.3l-0.5,0.4l-0.4,1c0,0,0,0.3,0.3,0.2s-0.1,0.4-0.1,0.4l-0.1,0.3l0.1,0.3c0,0,0.4,0.2,0.9-0.6
		c0.1-0.1,0.8-0.4,0.8-0.4s0.7,0.3,1.1,0.2c0.3,0.2,0.4,0.2,0.4,0.2L35.5,54l-0.8,0.1l-0.5,0.3l-0.6,0.7l-0.2,0.3
		c0,0,0.3,0.5,0.9-0.2c0.4-0.1,0.9-0.4,0.9-0.4l1.1,0.1l2.2,1.4l1.4,1l0.6,0.1L43.1,59z"/>
	<path class="st13" d="M50.4,57.1c0,0,0.6-0.7,1-0.9c0.4-0.4,0.9-1.3,0.9-1.3s-0.1-0.2,0.7-0.5c0.9-0.3,1.3-0.4,1.3-0.4l0.9-0.1
		c0,0,0.5,0.3-0.2,0.7c-0.3,0.2-0.5,0.2-0.5,0.2h1l1.1,0.4c0,0,0.2,0.4-0.3,0.5c0.1,0.1,0.5,0.4,0.1,0.5c-0.5,0.1-0.8,0.2-0.8,0.2
		l-0.2,0.1l-1.9,0.3l-0.4,0.5h-0.5C52.6,57.4,51.3,57.4,50.4,57.1z"/>
	<path class="st16" d="M44.1,37.7c0,0,1.1-0.5,1.9-0.3c0.5,0,2.2,0,2.2,0l-1,1.2c0,0-1.4,0.7-2.3,0C44,37.8,44.1,37.7,44.1,37.7z"/>
</g>
<g id="Calque_3" class="st0">
	
		<image style="display:inline;overflow:visible;enable-background:new    ;" width="1300" height="1123" xlink:href="../images/dessin-de-vintage-main-du-s-femme-102784659.jpg"  transform="matrix(3.437629e-02 0 0 3.437629e-02 18.3108 25.6977)">
	</image>
	<path class="st17" d="M36.3,45.5c0,0,3.3-5.4,7.8-5.7c3.5-0.4,3.8-0.3,3.8-0.3s2.2,0.3,4.1-0.4c2-0.3,4.6-0.9,5.4,0.3
		c0.2,0.7,0.5,1.3-0.7,1.9c-1.3,0.6-2.3,0.6-2.3,0.6s-3.1,0.2-3.3,1c0.4,0.5,0.9,1.2,0.9,1.2l0.1,0.4L36.3,45.5z"/>
	<path class="st18" d="M37.4,45.2c0,0,3-3.7,11.5-1.8c1.4,0.4,1.6,0.7,3.1,0.6s4.7-0.3,7.6,1.6c0.9,0.4,6.6-1.4,6.6-1.4
		s1.7-0.9,2.1,0.5c-0.1,0.4-0.1,0.4-0.1,0.4l-4.7,1.8l-2.3,0.7h-6.6L37.4,45.2z"/>
	<path class="st19" d="M61,45c0,0,6.5-4.1,7.4-2.1c0.1,0.2,0.3,0.3,0.3,0.3L65.4,45l-3.5,2l-1.5,1l-7,0.8L61,45z"/>
	<path class="st20" d="M55.6,46.2l2.5-0.7c0,0,0.4,0.4,1.8-1.3s2.1-1.9,2.1-1.9s1.5-3.1,3.8-2.4c0,0.8-0.9,1.9-0.9,1.9l-1.5,2
		l-2.1,2.4L60.6,47c0,0-0.6,0.4-1.9,0.6s-3.8,0.6-4.9,1.3c-1.1,0.3-1.4,0-1.4,0L55.6,46.2z"/>
	<path class="st21" d="M34.6,64.9l5.3-13.1c0,0,0-2.9,5.1-3c5.1,0.3,7.4,0.4,7.4,0.4l4.5-3.4c0,0,1.5-0.9,1.9-2.4
		c0.9-1.6,2.3-4.6,2.3-4.6s-1.6-1-2.5,0.9C57.9,41,57.9,41,57.9,41s-0.9,0.8-1.8,2.2c-1.3,0.9-2.6,1.6-2.6,1.6S52,44.5,50.2,45
		c-1.9-0.6-6-3.1-10.4-1.4c-1.8,0.6-3.5,1.9-3.5,1.9l-8.5,16.3C27.8,61.7,31.7,64.8,34.6,64.9z"/>
	<path class="st20" d="M57,39.1c0,0,0.8,0.4,0.3,1.6c0.2-0.1,0.6-0.2,0.5-1S57,39.1,57,39.1z"/>
	<path class="st17" d="M61,38.5c0,0-1.2,0.9-1,2.3c0.1,0.1,0.3,0,0.3,0S61,39.5,61,38.5z"/>
	<path class="st18" d="M66,39.7c0,0-1.2,0.9-1.3,1.5s0,0.6,0,0.6h0.1l0.6-0.9l0.6-1C66,39.9,66.2,39.5,66,39.7z"/>
	<path class="st21" d="M66.9,44.1c0,0-0.3-0.4,0.8-0.8s1.3-0.5,1.3-0.5s0.2-0.1,0.2,0.1s-0.9,0.7-0.9,0.7L66.9,44.1L66.9,44.1z"/>
	<path class="st19" d="M66.7,45.6c0,0,0.4-0.5,1.3-0.8c0.8-0.2,1.1-0.1,1.1-0.1v0.1l-1,0.5l-0.9,0.4C67.1,45.7,66.7,45.9,66.7,45.6z
		"/>
	<rect x="52.2" y="23.9" class="st21" width="7.8" height="7.8"/>
	<rect x="48.3" y="26.9" class="st17" width="7.8" height="7.8"/>
	<polygon class="st20" points="48.3,26.9 52.2,23.9 59.9,23.9 56.1,26.9 	"/>
	<polygon class="st18" points="56.1,34.6 59.9,31.6 59.9,23.9 56.1,26.9 	"/>
</g>
<g id="Calque_4" class="st0">
	
		<image style="display:inline;overflow:visible;enable-background:new    ;" width="224" height="224" xlink:href="../images/images.jpg"  transform="matrix(0.1724 0 0 0.1724 24.7083 26.3554)">
	</image>
	<path class="st22" d="M39.5,33.2H34c0,0-1.9-0.3-1.4,2.3s6.8,26.3,6.8,26.3s0.8,3.9,4.8,2C48.3,61.8,39.5,33.2,39.5,33.2z"/>
	<path class="st20" d="M51,59.8l-6.5-23.9c0,0-0.3-3-2.9-2.8s-7,0.2-7,0.2S33,33,33.9,36.1c0.9,3,5.4,19.8,5.4,19.8l1.5,6.5
		c0,0,0.5,2,2.3,1.5c1.8-0.4,6-1.4,6-1.4S51.2,62.3,51,59.8z"/>
	<polygon class="st13" points="34.6,36.4 43.8,36.1 50.2,58.2 50.2,58.5 41.1,60.6 	"/>
	<ellipse transform="matrix(0.9777 -0.2098 0.2098 0.9777 -11.829 11.0796)" class="st23" cx="46.3" cy="61.3" rx="0.8" ry="1.2"/>
	<path class="st23" d="M38.3,34.5l1.8-0.1c0,0,0.3,0.3,0,0.3s-1.8,0.1-1.8,0.1S37.9,34.7,38.3,34.5z"/>
	<circle class="st23" cx="37.5" cy="34.7" r="0.3"/>
	<rect x="-105.3" y="-35" class="st24" width="3.5" height="2"/>
</g>
<g id="Calque_5">
	<g>
		<g>
			<path class="st25" d="M12.3,50.3c-0.2,0-0.2-0.1-0.3-0.3c0-0.2-0.1-0.5-0.1-0.9s0-0.9,0.1-1.5c0.1-1.8,0.3-3.8,0.7-5.9
				c0.4-2.5,0.9-4.7,1.5-6.7c0.7-2.3,1.5-3.9,2.3-4.8l0.1-0.1c0.1,0,0.2,0.1,0.2,0.2v0.1c-0.1,0.5-0.2,0.8-0.5,1
				c-0.1,0.1-0.2,0.2-0.4,0.2c-0.8,1.6-1.6,3.8-2.2,6.6c-0.5,2.1-0.8,4.3-1,6.6c-0.2,1.6-0.3,2.7-0.3,3.5v0.3c0,0.1,0,0.1,0,0.1l0,0
				c0,0,0-0.1,0.1-0.1c0.1-0.3,0.1-0.7,0.2-1.2c0.3-1.9,0.6-3.5,1-4.9c0.3-1,0.6-2.1,0.9-3.4c0.4-1.3,0.7-2.3,1-3
				c0.4-1,0.8-1.7,1.3-2.1c0.3-0.3,0.5-0.4,0.8-0.4h0.1c0.1,0,0.2,0.1,0.3,0.2c0.2,0.3,0.3,1.2,0.3,2.6c0,0.9,0,1.7-0.1,2.5
				c-0.1,0.9-0.1,1.6-0.1,2.2c0,0.1,0,0.3,0,0.6s0,0.5,0.1,0.6c0,0,0,0,0.1,0s0.4-0.6,0.9-1.9c0.5-1.3,0.9-2.3,1.1-2.9
				c0.2-0.4,0.4-0.8,0.5-1c0.2-0.3,0.4-0.5,0.7-0.5c0.2,0,0.3,0.1,0.4,0.2c0.1,0.1,0.1,0.2,0.2,0.3c0.2,0.5,0.2,1.1,0.2,2
				c0,0.6,0,1.2,0,1.8s0,1.3,0,1.9c0,0.4,0,0.8,0.1,1.4c0,0.5,0.1,1,0.2,1.5s0.2,0.8,0.3,1.1c0.3,0.5,0.6,0.7,1,0.7
				c0.2,0,0.5-0.1,0.8-0.2l0.1-0.1c0.1,0,0.1,0,0.1,0.1s0,0.1-0.1,0.2c-0.3,0.1-0.6,0.2-0.8,0.2c-0.5,0-1-0.3-1.4-0.8
				c-0.2-0.3-0.3-0.7-0.4-1.1c-0.1-0.5-0.2-1-0.2-1.5c0-0.6-0.1-1-0.1-1.4v-0.8c0-0.6,0-1.3,0-1.8s0-1,0-1.4s0-0.8-0.1-1.2
				c-0.1-0.5-0.2-0.8-0.3-0.8l0,0c-0.3,0-0.6,0.4-0.9,1.2c-0.3,0.7-0.7,1.7-1.1,3c-0.5,1.3-0.8,2-1,2.2c-0.1,0.1-0.2,0.1-0.3,0.1
				c0,0,0,0-0.1,0c0,0-0.1-0.1-0.2-0.2s-0.1-0.4-0.1-0.8c0-0.3,0-0.6,0-0.8c0-0.5,0-1.2,0.1-2.1c0-0.8,0.1-1.6,0.1-2.5
				c0-1.3-0.1-2.1-0.2-2.4c0-0.1-0.1-0.1-0.2-0.1c0,0-0.1,0-0.2,0s-0.3,0.2-0.5,0.5c-0.3,0.4-0.6,1-0.9,1.7
				c-0.5,1.3-1.2,3.4-1.9,6.4c-0.3,1.3-0.6,2.5-0.8,3.6s-0.4,2.1-0.5,2.8L12.7,50c0,0.1,0,0.1-0.1,0.1
				C12.3,50.3,12.3,50.3,12.3,50.3z"/>
			<path class="st25" d="M29.1,45.4c-0.3,0-0.4-0.1-0.6-0.4c-0.1-0.2-0.1-0.4-0.1-0.8c0-0.3-0.1-0.6-0.1-0.9c0-0.2,0-0.3,0-0.5
				c0-0.1,0-0.2-0.1-0.2s-0.2-0.1-0.4-0.1c-0.1,0-0.2,0-0.4-0.1c-0.1,0-0.2,0-0.2,0c-0.2,0.3-0.4,0.5-0.6,0.7s-0.4,0.3-0.6,0.3
				c-0.2,0.1-0.4,0.1-0.5,0.1l0,0c-0.1,0.7-0.3,1.2-0.5,1.4c-0.1,0.1-0.3,0.2-0.4,0.2s-0.2,0-0.2-0.1c-0.2-0.1-0.3-0.3-0.4-0.6
				c0-0.2-0.1-0.3-0.1-0.5c0-0.3,0.1-0.7,0.2-1.1c-0.1-0.2-0.2-0.4-0.2-0.5c0-0.2,0.1-0.4,0.3-0.6c0.2-0.1,0.4-0.2,0.6-0.2
				c0.1,0,0.2,0,0.3,0.1c0.1,0,0.2,0.1,0.3,0.2c0.1,0.1,0.2,0.3,0.2,0.4c0,0.1,0,0.3,0,0.5s0,0.4,0,0.5l0,0c0.2,0,0.3,0,0.5-0.1
				c0.4-0.2,0.8-0.5,1.1-0.9c-0.1,0-0.1-0.1-0.2-0.2c-0.1-0.1-0.1-0.2-0.1-0.3s0-0.1,0-0.3c0-0.1,0.1-0.2,0.3-0.3c0.1,0,0.1,0,0.2,0
				s0.2,0.1,0.3,0.2c0,0.1,0,0.1,0,0.2c0,0.1,0,0.2-0.1,0.3c0,0.1,0,0.1,0,0.2c0,0.1,0.1,0.2,0.4,0.2c0.1,0,0.2,0,0.3,0
				c0.2,0,0.4,0.2,0.4,0.4c0,0.1,0,0.3,0.1,0.4l0,0c0.1,0.9,0.1,1.5,0.2,1.8c0.1,0.1,0.1,0.2,0.3,0.2h0.1c0.1,0,0.2-0.1,0.3-0.2
				c0.5-0.5,0.8-1.1,1.1-1.7c0.1-0.1,0.1-0.2,0.2-0.2c0,0,0.1,0,0.1,0.1l0,0c-0.1,0.3-0.3,0.6-0.5,0.9c-0.3,0.5-0.5,0.8-0.8,1.1
				C29.5,45.3,29.3,45.4,29.1,45.4z M24.6,44.9c0.1,0,0.2-0.1,0.3-0.3c0.1-0.2,0.2-0.5,0.2-1c-0.4,0-0.7-0.1-0.9-0.3
				c-0.1,0.3-0.1,0.5-0.1,0.7c0,0.1,0,0.3,0,0.4c0,0.2,0.1,0.3,0.2,0.4S24.5,44.8,24.6,44.9L24.6,44.9z M25.2,43.3
				c0-0.1,0-0.2,0-0.3c0-0.3,0-0.5,0-0.6s-0.1-0.2-0.1-0.3c-0.1-0.2-0.2-0.3-0.4-0.3c-0.1,0-0.2,0-0.3,0.1c-0.1,0.1-0.1,0.1-0.1,0.3
				c0,0.1,0,0.1,0,0.2c0,0.1,0,0.1,0,0.2C24.4,43,24.8,43.3,25.2,43.3z"/>
			<path class="st25" d="M33.3,49c0.4-0.9,0.6-1.9,0.6-3c0-0.4,0-0.8-0.1-1.2c-1,0.9-1.9,1.9-2.6,2.9c-0.3,0.4-0.6,0.9-0.8,1.3h-0.3
				c0.2-0.5,0.5-0.9,0.9-1.4c0.8-1.1,1.6-2,2.5-2.8l0.2-0.2c-0.1-0.6-0.3-1-0.5-1.4C33.1,43,33,42.9,33,42.9h-0.1
				c-0.1,0-0.3,0.1-0.4,0.3c-0.1,0.1-0.1,0.1-0.2,0.2c-0.1,0.1-0.3,0.3-0.4,0.5c-0.1,0.1-0.2,0.3-0.3,0.4c-0.2,0.2-0.4,0.3-0.6,0.3
				c-0.1,0-0.1,0-0.2-0.1s-0.2-0.2-0.2-0.4c0-0.1,0-0.3,0-0.4c0-0.2,0-0.3,0.1-0.6c0.1-0.2,0.2-0.4,0.3-0.6c0.1-0.1,0.2-0.2,0.4-0.4
				c0.2-0.1,0.3-0.2,0.5-0.3c0.1,0,0.1,0,0.2,0c0.1,0,0.2,0,0.3,0.1s0.2,0.2,0.3,0.3c0,0.1,0.1,0.1,0.1,0.2v0.1
				c0.1-0.1,0.3-0.2,0.4-0.2c0.1,0,0.2,0,0.2,0.1c0.1,0.1,0.2,0.2,0.3,0.4c0.2,0.3,0.3,0.7,0.4,1.3c0.3-0.2,0.5-0.4,0.8-0.6
				c0.3-0.2,0.5-0.3,0.7-0.5l0.3-0.2H36h0.1v0.1c0,0,0,0.1-0.1,0.1l-0.3,0.2c-0.2,0.1-0.5,0.3-0.7,0.5c-0.3,0.2-0.6,0.4-0.9,0.7
				c0.1,0.5,0.1,1,0.1,1.6c0,1-0.2,2-0.6,2.9L33.3,49z M31.3,44.3c0.1,0,0.3-0.1,0.4-0.4l0.1-0.1c0.1-0.1,0.1-0.2,0.2-0.3
				c0.2-0.3,0.4-0.5,0.6-0.7l0,0h-0.1c-0.1,0-0.2-0.1-0.2-0.2v-0.1c0-0.1,0-0.1,0-0.2c0-0.1-0.1-0.1-0.2-0.1c-0.1,0-0.1,0-0.2,0.1
				c-0.1,0-0.2,0.1-0.3,0.2c-0.1,0.1-0.2,0.2-0.2,0.3c-0.1,0.2-0.2,0.3-0.3,0.5c0,0.1-0.1,0.2-0.1,0.4c0,0.1,0,0.2,0,0.3
				s0,0.1,0.1,0.1h0.1C31.2,44.3,31.3,44.3,31.3,44.3z"/>
			<path class="st25" d="M39.2,44.5c-0.3,0-0.5-0.2-0.6-0.5c-0.1-0.2-0.1-0.4-0.1-0.7c0,0,0-0.1,0-0.2c0-0.1,0-0.3,0-0.3
				c0-0.1,0-0.2,0.1-0.2c0-0.1,0-0.1,0-0.1l0,0l0,0c0,0.1-0.1,0.2-0.2,0.3c0,0.1-0.1,0.1-0.2,0.2c-0.6,0.8-1.1,1.3-1.6,1.3
				c-0.2,0-0.3,0-0.5-0.1c-0.1-0.1-0.2-0.2-0.3-0.4c0-0.1,0-0.1,0-0.2c0-0.1,0-0.2,0.1-0.4s0.2-0.4,0.4-0.6c0.2-0.2,0.4-0.3,0.6-0.4
				c0.4-0.2,0.7-0.3,1-0.3c0.2,0,0.4,0,0.5,0.1c0,0,0.1,0.1,0.1,0.2c0,0,0-0.1,0.1-0.2c0-0.1,0.1-0.1,0.1-0.1s0.1-0.1,0.2-0.1H39
				c0.1,0,0.1,0.1,0.1,0.2c0,0.1,0,0.3-0.1,0.7c-0.1,0.2-0.1,0.5-0.1,0.9c0,0.1,0,0.2,0,0.3c0.1,0.4,0.2,0.5,0.5,0.5
				s0.7-0.2,1.2-0.7c0.2-0.2,0.4-0.4,0.5-0.6h0.1c0.1,0,0.1,0,0.1,0.1c0,0,0,0.1-0.1,0.1c-0.5,0.6-1,1-1.5,1.2
				C39.5,44.5,39.4,44.5,39.2,44.5z M36.7,44c0.1,0,0.3,0,0.4-0.1c0.1-0.1,0.2-0.1,0.4-0.2c0.4-0.3,0.7-0.7,1-1.2l0.1-0.1
				c-0.1,0-0.1,0-0.2,0l0,0c0,0,0,0-0.1,0c0,0,0,0-0.1-0.1s0-0.1-0.1-0.1c0,0-0.1,0-0.2,0l0,0c-0.3,0.1-0.7,0.3-1.1,0.7
				c-0.3,0.3-0.4,0.5-0.4,0.8c0,0.1,0,0.2,0.1,0.3C36.5,43.9,36.6,44,36.7,44z"/>
			<path class="st25" d="M41.3,44.7c-0.1,0-0.1,0-0.2-0.1c-0.1,0-0.1-0.1-0.1-0.2c0-0.1-0.1-0.3-0.1-0.6c0-0.6,0.1-1.3,0.3-2
				c-0.1-0.1-0.1-0.2-0.1-0.3c0-0.2,0.2-0.5,0.5-0.7c0.1-0.1,0.2-0.1,0.2-0.1h0.1c0,0,0.1,0.1,0.1,0.2c0,0,0,0,0,0.1
				c-0.2,0.4-0.3,0.7-0.4,1.1c-0.2,0.6-0.2,1.2-0.2,1.7c0,0.1,0,0.1,0,0.2c0,0.1,0,0.1,0.1,0.1l0,0c0,0,0.1-0.2,0.2-0.5
				c0-0.1,0.1-0.2,0.1-0.2c0.2-0.4,0.4-0.7,0.5-0.9s0.3-0.3,0.4-0.3c0.1,0,0.1,0,0.2,0.1c0.1,0.1,0.1,0.2,0.1,0.3
				c0,0.2,0.1,0.3,0.1,0.5v0.1c0.1,0.6,0.2,0.9,0.4,1c0.1,0,0.2,0.1,0.2,0.1c0.1,0,0.2,0,0.4-0.1s0.4-0.2,0.6-0.4
				c0.3-0.3,0.6-0.5,0.8-0.8h0.1c0,0,0,0,0.1,0s0,0,0,0.1v0.1c-0.6,0.7-1.1,1.1-1.5,1.3c-0.2,0.1-0.4,0.1-0.5,0.1s-0.1,0-0.2,0
				c-0.2-0.1-0.4-0.2-0.5-0.5c-0.1-0.2-0.1-0.5-0.2-0.7c0-0.2-0.1-0.4-0.1-0.6c0-0.1-0.1-0.1-0.1-0.1s-0.1,0-0.1,0.1
				c-0.1,0.2-0.3,0.5-0.4,0.8c-0.1,0.2-0.2,0.5-0.3,0.7v0.1c-0.1,0.2-0.1,0.3-0.2,0.3C41.4,44.7,41.4,44.7,41.3,44.7z"/>
			<path class="st25" d="M48.7,49c0.6-0.6,1.3-1.2,2.1-1.7c0.1-1.7,0.2-3.5,0.3-5.5c0.2-3.7,0.5-6.6,0.8-8.8c-0.1,0-0.2-0.1-0.3-0.2
				v-0.1c0-0.1,0-0.2,0.1-0.4s0.2-0.5,0.5-0.9c0.1-0.1,0.1-0.2,0.2-0.2l0,0c0.1,0,0.1,0.1,0.1,0.2l0,0c-0.2,1.1-0.4,2.3-0.5,3.6
				s-0.3,2.8-0.4,4.4c-0.1,1.5-0.2,3.1-0.3,4.6c0.4-2.2,0.7-3.9,1.1-5.2c0.3-1,0.7-1.9,1-2.5s0.6-0.9,0.8-1.1
				c0.3-0.2,0.5-0.3,0.7-0.3l0,0c0.2,0,0.4,0.1,0.5,0.3s0.1,0.3,0.1,0.5c0,0.1,0,0.2,0,0.4s-0.1,0.5-0.2,0.9
				c-0.3,0.8-0.6,1.5-0.9,2.1c-0.4,0.6-0.7,1.2-1.1,1.6c0.7-0.4,1.4-0.7,2.1-0.7c0.1,0,0.2,0,0.3,0c0.4,0,0.8,0.1,1.2,0.3
				s0.7,0.5,1,0.9c0.3,0.7,0.5,1.4,0.5,2.1c0,0.1,0,0.3,0,0.4c0.5-0.1,1.4-0.4,2.6-0.8c0,0,0,0,0.1,0s0.1,0,0.1,0.1v0.1l-0.1,0.1
				l-0.4,0.1c-0.8,0.2-1.6,0.4-2.3,0.6c-0.1,0.5-0.2,1.1-0.5,1.7c-0.2,0.6-0.5,1.1-0.8,1.6c-0.4,0.6-0.8,1.2-1.3,1.7h-0.5
				c0.5-0.6,1-1.2,1.5-1.9c0.3-0.5,0.5-1,0.7-1.5s0.3-1,0.4-1.5c-1.6,0.5-3.1,1-4.6,1.8c-0.7,0.3-1.4,0.7-2.1,1.2v0.2
				c-0.1,0.6-0.1,1.1-0.2,1.7h-0.5c0-0.1,0-0.2,0.1-0.3c0-0.2,0-0.5,0-0.7s0-0.4,0-0.5c-0.6,0.4-1.1,0.8-1.6,1.3 M51.4,46.9
				c0.7-0.4,1.4-0.8,2.1-1.2c1.5-0.7,3.1-1.3,4.6-1.8c0-0.2,0-0.5,0-0.7s0-0.5-0.1-0.9c0-0.4-0.1-0.7-0.3-1.1
				c-0.2-0.4-0.4-0.7-0.8-0.8c-0.3-0.1-0.6-0.2-1-0.2c-0.1,0-0.2,0-0.4,0c-0.4,0-0.8,0.1-1.1,0.3c-0.4,0.2-0.8,0.4-1.2,0.8
				c-0.1,0.1-0.1,0.1-0.2,0.2c-0.2,0.2-0.3,0.3-0.5,0.4l0,0c-0.1,0-0.1,0-0.2,0c-0.1,0-0.1-0.1-0.1-0.2c0-0.1,0-0.2,0.1-0.3
				s0.2-0.1,0.3-0.2l0,0c0.3-0.3,0.5-0.7,0.8-1.1c0.7-1,1.2-2,1.5-3c0.2-0.5,0.2-0.9,0.2-1.2c0-0.2,0-0.3,0-0.3
				c0-0.1-0.1-0.2-0.1-0.2c0.1-0.3,0-0.4-0.1-0.4c0,0-0.1,0-0.2,0c-0.1,0-0.2,0.1-0.3,0.2c-0.2,0.2-0.4,0.5-0.7,0.9
				c-0.3,0.5-0.6,1.4-0.9,2.5c-0.3,0.9-0.6,2.2-0.8,3.7C51.7,43.9,51.5,45.4,51.4,46.9z"/>
			<path class="st25" d="M62.1,46.8c-0.1,0-0.2,0-0.3-0.1s-0.2-0.3-0.3-0.5c-0.1-0.3-0.2-0.6-0.2-0.9c-0.1-0.9-0.1-1.8-0.1-2.7
				c0-0.2,0-0.7,0-1.4s0.1-1.6,0.2-2.6c0.1-1.1,0.3-2,0.5-2.8c0-0.1,0-0.2,0.1-0.3c0.1-0.3,0.3-0.5,0.4-0.5c0.1,0,0.1,0.1,0.2,0.3
				c0,0.1,0,0.3,0,0.5c0,0.8-0.2,1.7-0.6,2.7c-0.3,1.3-0.4,2.7-0.5,4.2c0,0.2,0,0.4,0,0.6c0,0.6,0,1.3,0.1,1.9v0.1
				c0,0.2,0,0.3,0.1,0.5c0,0.2,0.1,0.3,0.1,0.5c0.1,0.1,0.1,0.3,0.3,0.3h0.1c0.1,0,0.3-0.1,0.5-0.3c0.1-0.1,0.2-0.2,0.3-0.3
				c0.2-0.3,0.6-0.9,1.1-1.6l0.7-1.1c0-0.1,0.1-0.1,0.1-0.1s0.1,0,0.1,0.1c0,0,0,0,0,0.1l-0.7,1.1c-0.5,0.7-0.8,1.3-1.1,1.7
				c-0.1,0.1-0.2,0.2-0.3,0.4c-0.1,0.1-0.3,0.3-0.4,0.4C62.3,46.7,62.2,46.8,62.1,46.8z"/>
			<path class="st25" d="M68,44.5c-0.3,0-0.5-0.2-0.6-0.5c-0.1-0.2-0.1-0.4-0.1-0.7c0,0,0-0.1,0-0.2c0-0.1,0-0.3,0-0.3
				c0-0.1,0-0.2,0.1-0.2c0-0.1,0-0.1,0-0.1l0,0l0,0c0,0.1-0.1,0.2-0.2,0.3c0,0.1-0.1,0.1-0.2,0.2c-0.6,0.8-1.1,1.3-1.6,1.3
				c-0.2,0-0.3,0-0.5-0.1c-0.1-0.1-0.2-0.2-0.3-0.4c0-0.1,0-0.1,0-0.2c0-0.1,0-0.2,0.1-0.4s0.2-0.4,0.4-0.6c0.2-0.2,0.4-0.3,0.6-0.4
				c0.4-0.2,0.7-0.3,1-0.3c0.2,0,0.4,0,0.5,0.1c0,0,0.1,0.1,0.1,0.2c0,0,0-0.1,0.1-0.2c0-0.1,0.1-0.1,0.1-0.1s0.1-0.1,0.2-0.1h0.1
				c0.1,0,0.1,0.1,0.1,0.2c0,0.1,0,0.3-0.1,0.7c-0.1,0.2-0.1,0.5-0.1,0.9c0,0.1,0,0.2,0,0.3c0.1,0.4,0.2,0.5,0.5,0.5
				s0.7-0.2,1.2-0.7c0.2-0.2,0.4-0.4,0.5-0.6H70c0.1,0,0.1,0,0.1,0.1c0,0,0,0.1-0.1,0.1c-0.5,0.6-1,1-1.5,1.2
				C68.3,44.5,68.2,44.5,68,44.5z M65.4,44c0.1,0,0.3,0,0.4-0.1s0.2-0.1,0.4-0.2c0.4-0.3,0.7-0.7,1-1.2l0.1-0.1c-0.1,0-0.1,0-0.2,0
				l0,0c0,0,0,0-0.1,0s0,0-0.1-0.1s0-0.1-0.1-0.1s-0.1,0-0.2,0l0,0c-0.3,0.1-0.7,0.3-1.1,0.7c-0.3,0.3-0.4,0.5-0.4,0.8
				c0,0.1,0,0.2,0.1,0.3C65.2,43.9,65.3,44,65.4,44z"/>
			<path class="st25" d="M70.1,44.7c-0.1,0-0.1,0-0.2-0.1c-0.1,0-0.1-0.1-0.1-0.2c0-0.1-0.1-0.3-0.1-0.6c0-0.6,0.1-1.3,0.3-2
				c-0.1-0.1-0.1-0.2-0.1-0.3c0-0.2,0.2-0.5,0.5-0.7c0.1-0.1,0.2-0.1,0.2-0.1h0.1c0,0,0.1,0.1,0.1,0.2c0,0,0,0,0,0.1
				c-0.2,0.4-0.3,0.7-0.4,1.1c-0.2,0.6-0.2,1.2-0.2,1.7c0,0.1,0,0.1,0,0.2c0,0.1,0,0.1,0.1,0.1l0,0c0,0,0.1-0.2,0.2-0.5
				c0-0.1,0.1-0.2,0.1-0.2c0.2-0.4,0.4-0.7,0.5-0.9s0.3-0.3,0.4-0.3s0.1,0,0.2,0.1s0.1,0.2,0.1,0.3c0,0.2,0.1,0.3,0.1,0.5v0.1
				c0.1,0.6,0.2,0.9,0.4,1c0.1,0,0.2,0.1,0.2,0.1c0.1,0,0.2,0,0.4-0.1c0.2-0.1,0.4-0.2,0.6-0.4c0.3-0.3,0.6-0.5,0.8-0.8h0.1
				c0,0,0,0,0.1,0s0,0,0,0.1v0.1c-0.6,0.7-1.1,1.1-1.5,1.3c-0.2,0.1-0.4,0.1-0.5,0.1s-0.1,0-0.2,0c-0.2-0.1-0.4-0.2-0.5-0.5
				c-0.1-0.2-0.1-0.5-0.2-0.7c0-0.2-0.1-0.4-0.1-0.6c0-0.1-0.1-0.1-0.1-0.1s-0.1,0-0.1,0.1c-0.1,0.2-0.3,0.5-0.4,0.8
				c-0.1,0.2-0.2,0.5-0.3,0.7v0.1c-0.1,0.2-0.1,0.3-0.2,0.3C70.2,44.7,70.1,44.7,70.1,44.7z"/>
			<path class="st25" d="M75.1,44.8c-0.1,0-0.1,0-0.2,0s-0.2,0-0.2-0.1c-0.2-0.1-0.3-0.3-0.4-0.5c0-0.1-0.1-0.3-0.1-0.5
				c0-0.3,0.1-0.7,0.4-1.1c0.1-0.2,0.3-0.4,0.4-0.6c0.3-0.3,0.5-0.5,0.8-0.6c0.1-0.1,0.3-0.1,0.4-0.1s0.2,0,0.3,0.1
				c0,0,0,0.1,0.1,0.1v0.1v0.1c0,0.2-0.1,0.5-0.2,0.7c0,0.1-0.1,0.1-0.2,0.1s-0.1,0-0.2-0.1s-0.1-0.1-0.1-0.2c0-0.1,0.1-0.2,0.2-0.4
				c0-0.1,0.1-0.1,0.1-0.1l0,0c0,0-0.1,0-0.2,0.1c-0.2,0.1-0.4,0.3-0.6,0.5s-0.4,0.5-0.5,0.8s-0.2,0.5-0.2,0.7c0,0.1,0,0.2,0,0.3
				c0.1,0.2,0.1,0.3,0.3,0.4c0.1,0,0.2,0.1,0.3,0.1h0.1c0.4,0,0.8-0.1,1.2-0.4c0.5-0.3,0.9-0.5,1.1-0.8c0.1-0.1,0.2-0.2,0.3-0.4
				c0,0,0,0,0.1,0s0.1,0,0.1,0.1l0,0v0.1L78,43.4c-0.4,0.4-0.8,0.7-1.3,1C76,44.7,75.5,44.8,75.1,44.8z"/>
		</g>
		<g>
			<path class="st25" d="M30,50.4h0.4l0.7,2.5l1-2.5h0.1l1,2.5l0.7-2.5h0.3l-1,3.4h-0.1l-1-2.6l-1,2.6H31L30,50.4z"/>
			<path class="st25" d="M35.7,50.4h2v0.3H36v1.1h1.6v0.3H36v1.3h1.6v0.3h-2v-3.3H35.7z"/>
			<path class="st25" d="M39.2,50.4h0.7c0.3,0,0.5,0,0.6,0.1s0.3,0.2,0.3,0.3S41,51,41,51.2s0,0.3-0.1,0.4c-0.1,0.1-0.2,0.2-0.3,0.3
				c0.2,0.1,0.3,0.1,0.4,0.2c0.1,0.1,0.2,0.2,0.2,0.3c0.1,0.1,0.1,0.2,0.1,0.4c0,0.3-0.1,0.5-0.3,0.7s-0.5,0.3-0.8,0.3h-0.9v-3.4
				H39.2z M39.6,50.7v1.1h0.2c0.2,0,0.4,0,0.5-0.1c0.1,0,0.2-0.1,0.3-0.2c0.1-0.1,0.1-0.2,0.1-0.3c0-0.2-0.1-0.3-0.2-0.4
				c-0.1-0.1-0.3-0.1-0.5-0.1H39.6z M39.6,52.2v1.3H40c0.3,0,0.4,0,0.6-0.1c0.1,0,0.2-0.1,0.3-0.2C41,53.1,41,53,41,52.9
				c0-0.2,0-0.3-0.1-0.4c-0.1-0.1-0.2-0.2-0.4-0.2c-0.1,0-0.3,0-0.6,0L39.6,52.2L39.6,52.2z"/>
			<path class="st25" d="M42.9,50.4h1.7v0.3h-1.4v1.1h1.4v0.3h-1.4v1.7h-0.3V50.4z"/>
			<path class="st25" d="M47.8,50.3c0.5,0,1,0.2,1.3,0.5c0.4,0.3,0.5,0.8,0.5,1.3s-0.2,0.9-0.5,1.3s-0.8,0.5-1.3,0.5
				s-0.9-0.2-1.3-0.5C46.2,53,46,52.6,46,52.1c0-0.3,0.1-0.6,0.2-0.9c0.2-0.3,0.4-0.5,0.7-0.7C47.2,50.4,47.5,50.3,47.8,50.3z
				 M47.8,50.6c-0.3,0-0.5,0.1-0.7,0.2c-0.2,0.1-0.4,0.3-0.5,0.5s-0.2,0.5-0.2,0.7c0,0.4,0.1,0.8,0.4,1c0.3,0.3,0.6,0.4,1,0.4
				c0.3,0,0.5-0.1,0.7-0.2c0.2-0.1,0.4-0.3,0.5-0.5s0.2-0.5,0.2-0.7c0-0.3-0.1-0.5-0.2-0.7c-0.1-0.2-0.3-0.4-0.5-0.5
				S48.1,50.6,47.8,50.6z"/>
			<path class="st25" d="M51.3,50.4h0.3v3.1H53v0.3h-1.7V50.4z"/>
			<path class="st25" d="M54.4,50.4h0.3v3.4h-0.3V50.4z"/>
			<path class="st25" d="M58.1,50.3c0.5,0,1,0.2,1.3,0.5c0.4,0.3,0.5,0.8,0.5,1.3s-0.2,0.9-0.5,1.3s-0.8,0.5-1.3,0.5
				s-0.9-0.2-1.3-0.5s-0.5-0.8-0.5-1.3c0-0.3,0.1-0.6,0.2-0.9c0.2-0.3,0.4-0.5,0.7-0.7C57.5,50.4,57.8,50.3,58.1,50.3z M58.2,50.6
				c-0.3,0-0.5,0.1-0.7,0.2c-0.2,0.1-0.4,0.3-0.5,0.5s-0.2,0.5-0.2,0.7c0,0.4,0.1,0.8,0.4,1c0.3,0.3,0.6,0.4,1,0.4
				c0.3,0,0.5-0.1,0.7-0.2c0.2-0.1,0.4-0.3,0.5-0.5s0.2-0.5,0.2-0.7c0-0.3-0.1-0.5-0.2-0.7c-0.1-0.2-0.3-0.4-0.5-0.5
				S58.4,50.6,58.2,50.6z"/>
		</g>
		<path class="st25" d="M57.6,48.6"/>
		<path class="st25" d="M26.3,48.5"/>
		<path class="st26" d="M68.2,48.8"/>
		<path class="st26" d="M24.5,48.8"/>
	</g>
</g>
</svg>
